<svg width="622" height="640" viewBox="0 0 622 640" fill="none" xmlns="http://www.w3.org/2000/svg">
<path fill-rule="evenodd" clip-rule="evenodd" d="M414.808 131.327C467.863 170.958 521.245 210.834 442.848 311.486C460.064 267.833 405.389 246.069 348.42 223.391C255.018 186.211 155.452 146.577 356.456 4C329.37 67.5073 371.982 99.3374 414.808 131.327ZM398.046 377.007C474.656 282.588 410.523 259.95 339.067 234.727C290.298 217.513 238.117 199.094 224.941 155.829C209.007 231.043 261.659 258.542 312.983 285.347C355.423 307.513 396.955 329.204 398.046 377.007ZM416.082 382.373C408.984 384.566 400.453 387.536 390.475 391.274C380.498 395.019 370.355 399.128 360.045 403.599C349.735 408.078 339.867 412.595 330.446 417.158C321.019 421.722 313.203 425.831 306.998 429.482C294.803 436.424 282.054 444.32 268.752 453.174C255.448 462.031 242.755 471.661 230.672 482.068C218.586 492.476 207.611 503.616 197.747 515.482C187.88 527.354 180.123 539.768 174.467 552.731C168.815 565.693 165.873 579.113 165.654 592.992C165.432 606.866 168.867 621.019 175.966 635.444L154.349 634.622C147.697 619.1 144.704 603.989 145.367 589.294C146.034 574.593 149.466 560.4 155.677 546.705C161.882 533.011 170.196 520.001 180.619 507.677C191.041 495.352 202.623 483.711 215.376 472.757C228.122 461.801 241.481 451.624 255.448 442.218C269.418 432.815 283.054 424.372 296.355 416.884C309.658 409.215 323.462 402.053 337.761 395.382C352.063 388.722 366.861 383.196 382.161 378.814L416.082 382.373ZM500.225 295.143C513.528 299.983 524.944 306.372 534.48 314.315C544.009 322.257 551.108 331.843 555.765 343.072C560.419 354.301 561.969 367.404 560.419 382.373C558.866 391.506 555.65 399.861 550.776 407.435C545.894 415.013 539.967 422.044 532.981 428.524C526 435.008 518.348 441.081 510.034 446.738C501.72 452.4 493.239 457.693 484.594 462.623C472.621 469.563 459.76 475.68 446.015 480.973C432.265 486.272 418.52 491.015 404.776 495.215C392.801 499.049 379.222 502.568 364.034 505.76C348.847 508.957 333.271 511.743 317.31 514.113C301.344 516.489 285.549 518.403 269.917 519.865C254.284 521.328 240.037 522.149 227.18 522.329L255.116 505.349C269.086 504.438 281.942 503.34 293.695 502.062C305.445 500.787 316.862 499.186 327.952 497.269C339.035 495.352 350.285 493.069 361.708 490.422C373.125 487.778 385.372 484.626 398.455 480.973C407.322 478.603 417.133 475.405 427.89 471.387C438.639 467.372 449.448 462.67 460.316 457.282C471.176 451.899 481.652 445.873 491.744 439.206C501.828 432.543 510.752 425.468 518.517 417.978C526.274 410.495 532.427 402.6 536.974 394.289C541.515 385.983 543.568 377.445 543.125 368.678C542.238 354.258 537.358 342.345 528.493 332.939C519.623 323.537 505.229 313.403 491.261 307.926L500.225 295.143ZM303.672 302.675C280.17 306.509 256.947 311.849 233.998 318.696C211.05 325.544 188.82 333.623 167.317 342.935C157.118 347.318 147.03 352.384 137.052 358.136C127.075 363.887 118.149 370.187 110.283 377.034C102.409 383.881 95.9791 391.232 90.9928 399.081C86.0046 406.935 83.229 415.103 82.6766 423.594C82.1222 432.084 84.3416 440.896 89.3307 450.024C94.3189 459.155 102.8 468.374 114.772 477.686L78.8523 468.1C69.7598 456.966 64.2192 446.327 62.2237 436.193C60.2302 426.059 60.6712 416.473 63.5553 407.435C66.4337 398.396 71.3134 389.999 78.1894 382.238C85.0578 374.478 92.9864 367.358 101.968 360.874C110.948 354.396 120.369 348.55 130.236 343.346C140.098 338.142 149.577 333.623 158.669 329.789C191.845 316.963 266.82 291.759 288.748 288.54L303.672 302.675Z" fill="#EDF4F9"/>
</svg>
