<svg width="15" height="14" viewBox="0 0 15 14" fill="none" xmlns="http://www.w3.org/2000/svg">
<path d="M3.30523 14V4.55422H0.184143V14H3.30523ZM1.74509 3.26379C2.83347 3.26379 3.51094 2.53846 3.51094 1.63205C3.49066 0.705193 2.83351 0 1.76575 0C0.698146 0 0 0.705207 0 1.63205C0 2.53851 0.677297 3.26379 1.72472 3.26379H1.74499H1.74509ZM5.03275 14H8.15384V8.72502C8.15384 8.44271 8.17412 8.16069 8.25654 7.95888C8.48217 7.39483 8.99571 6.81064 9.85789 6.81064C10.9873 6.81064 11.4391 7.67685 11.4391 8.94665V13.9999H14.56V8.58381C14.56 5.68244 13.0202 4.33246 10.9667 4.33246C9.28303 4.33246 8.54377 5.27917 8.13308 5.92397H8.15391V4.55403H5.03282C5.07378 5.44037 5.03282 13.9998 5.03282 13.9998L5.03275 14Z" fill="white"/>
</svg>
