<svg width="266" height="16" viewBox="0 0 266 16" fill="none" xmlns="http://www.w3.org/2000/svg">
<g clip-path="url(#clip0_196_123)">
<path d="M7.82506 8.33919C7.66864 8.38752 7.48063 8.45299 7.26076 8.53535C7.04088 8.61788 6.81736 8.70842 6.59016 8.80695C6.36296 8.90566 6.14548 9.00521 5.93788 9.10576C5.73012 9.20635 5.55789 9.2969 5.42114 9.37736C5.1524 9.53035 4.87144 9.70435 4.57829 9.89946C4.28512 10.0947 4.0054 10.3069 3.73912 10.5362C3.47277 10.7656 3.23092 11.0111 3.01354 11.2726C2.7961 11.5342 2.62516 11.8078 2.50052 12.0934C2.37596 12.3791 2.31112 12.6748 2.30629 12.9807C2.3014 13.2864 2.37709 13.5983 2.53354 13.9162L2.05716 13.8981C1.91056 13.556 1.84461 13.223 1.85922 12.8992C1.87393 12.5752 1.94956 12.2624 2.08642 11.9606C2.22317 11.6588 2.40639 11.3722 2.63609 11.1006C2.86575 10.829 3.12099 10.5724 3.40203 10.331C3.68293 10.0896 3.97732 9.8653 4.28512 9.65802C4.59299 9.4508 4.89349 9.26475 5.18659 9.09973C5.47977 8.93072 5.78396 8.77289 6.09907 8.62588C6.41426 8.47911 6.74036 8.35734 7.07753 8.26076L7.82506 8.33919ZM9.67935 6.41688C9.97251 6.52354 10.2241 6.66433 10.4342 6.83937C10.6442 7.01441 10.8007 7.22565 10.9033 7.47312C11.0059 7.72057 11.04 8.00932 11.0059 8.33919C10.9716 8.54047 10.9008 8.72459 10.7934 8.8915C10.6858 9.05849 10.5552 9.21344 10.4012 9.35624C10.2474 9.49913 10.0787 9.63296 9.89551 9.75763C9.71229 9.8824 9.52539 9.99905 9.33488 10.1077C9.07103 10.2606 8.7876 10.3954 8.48471 10.5121C8.18169 10.6289 7.8788 10.7334 7.57591 10.8259C7.31202 10.9104 7.01276 10.988 6.67806 11.0583C6.34337 11.1288 6.00012 11.1902 5.64838 11.2424C5.29654 11.2948 4.94846 11.3369 4.60398 11.3692C4.25947 11.4014 3.94549 11.4195 3.66217 11.4235L4.27779 11.0493C4.58566 11.0292 4.86897 11.005 5.12797 10.9768C5.38693 10.9487 5.63852 10.9135 5.88291 10.8712C6.12715 10.829 6.37507 10.7787 6.62681 10.7203C6.8784 10.662 7.14829 10.5926 7.43661 10.5121C7.63201 10.4598 7.84822 10.3894 8.08528 10.3008C8.32216 10.2123 8.56036 10.1087 8.79986 9.98999C9.03919 9.87137 9.27004 9.73858 9.49246 9.59165C9.71468 9.44482 9.91134 9.2889 10.0825 9.12383C10.2534 8.95894 10.389 8.78495 10.4892 8.60179C10.5893 8.41874 10.6345 8.2306 10.6247 8.03741C10.6052 7.71962 10.4977 7.45709 10.3023 7.2498C10.1068 7.04261 9.78962 6.81928 9.4818 6.69858L9.67935 6.41688ZM5.34784 6.58286C4.82992 6.66736 4.31816 6.78504 3.81242 6.93593C3.30669 7.08684 2.81682 7.26489 2.34294 7.47009C2.11818 7.56667 1.89587 7.67832 1.67599 7.80508C1.45612 7.93182 1.25942 8.07065 1.08606 8.22154C0.912552 8.37243 0.770846 8.53442 0.660962 8.7074C0.551036 8.88047 0.489868 9.06049 0.477694 9.2476C0.465478 9.4347 0.514386 9.6289 0.624334 9.83004C0.734261 10.0313 0.921159 10.2344 1.18499 10.4397L0.393418 10.2284C0.193043 9.98302 0.0709428 9.74857 0.0269679 9.52525C-0.0169642 9.30193 -0.00724686 9.09067 0.0563127 8.8915C0.119744 8.69231 0.227279 8.50727 0.378809 8.33622C0.530169 8.16521 0.704894 8.00832 0.902834 7.86543C1.10071 7.72266 1.30833 7.59383 1.52579 7.47915C1.74312 7.36447 1.95199 7.26489 2.15237 7.18039C2.88348 6.89775 4.53573 6.3423 5.01896 6.27137L5.34784 6.58286Z" fill="white"/>
<path d="M7.42744 8.22057C10.268 4.71971 4.32849 5.69684 3.61267 3.34639C2.97116 6.37452 7.37433 5.89316 7.42744 8.22057Z" fill="white"/>
<path d="M8.4149 6.77617C11.5372 2.76759 5.17469 3.13333 6.51106 0C-0.620274 5.05842 9.41635 4.23697 8.4149 6.77617Z" fill="white"/>
<path d="M24.7236 0.875218V2.29922H21.3316V11.4992H19.7316V2.29922H16.3556V0.875218H24.7236Z" fill="white"/>
<path d="M27.2001 0.715219V5.43522C27.3921 4.91255 27.6801 4.51255 28.0641 4.23522C28.4481 3.95789 28.9281 3.81922 29.5041 3.81922C30.3148 3.81922 30.9548 4.08589 31.4241 4.61922C31.8934 5.14189 32.1281 5.90455 32.1281 6.90722V11.4992H30.5441V6.98722C30.5441 6.40055 30.4161 5.95255 30.1601 5.64322C29.9148 5.33388 29.5361 5.17922 29.0241 5.17922C28.4481 5.17922 28.0001 5.41389 27.6801 5.88322C27.3601 6.35255 27.2001 7.01922 27.2001 7.88322V11.4992H25.6641V0.715219H27.2001Z" fill="white"/>
<path d="M36.9921 11.6272C35.8401 11.6272 34.9228 11.2752 34.2401 10.5712C33.5681 9.85655 33.2321 8.92322 33.2321 7.77122C33.2321 7.19522 33.3228 6.66189 33.5041 6.17122C33.6961 5.68055 33.9521 5.26455 34.2721 4.92322C34.6028 4.57122 34.9921 4.29922 35.4401 4.10722C35.8988 3.91522 36.3948 3.81922 36.9281 3.81922C38.0374 3.81922 38.9068 4.17122 39.5361 4.87522C40.1654 5.56855 40.4801 6.50722 40.4801 7.69122V8.26722H34.8001C34.8428 8.90722 35.0561 9.41389 35.4401 9.78722C35.8348 10.1606 36.3521 10.3472 36.9921 10.3472C37.6321 10.3472 38.1121 10.2139 38.4321 9.94722C38.7521 9.66989 38.9814 9.34988 39.1201 8.98722L40.5121 9.53122C40.2561 10.1072 39.8454 10.6032 39.2801 11.0192C38.7148 11.4246 37.9521 11.6272 36.9921 11.6272ZM36.8961 5.09922C36.3308 5.09922 35.8508 5.28055 35.4561 5.64322C35.0721 5.99522 34.8428 6.47522 34.7681 7.08322H38.8641C38.8321 6.44322 38.6401 5.95255 38.2881 5.61122C37.9468 5.26989 37.4828 5.09922 36.8961 5.09922Z" fill="white"/>
<path d="M44.8996 0.875218H48.2596C49.7103 0.875218 50.7929 1.15255 51.5076 1.70722C52.2223 2.26189 52.5796 3.09389 52.5796 4.20322C52.5796 5.34455 52.2116 6.19255 51.4756 6.74722C50.7503 7.30188 49.6623 7.57922 48.2116 7.57922H46.4996V11.4992H44.8996V0.875218ZM46.4996 2.23522V6.21922H48.2116C49.1716 6.21922 49.8649 6.06455 50.2916 5.75522C50.7289 5.44589 50.9476 4.92855 50.9476 4.20322C50.9476 3.49922 50.7396 2.99789 50.3236 2.69922C49.9076 2.38988 49.2196 2.23522 48.2596 2.23522H46.4996Z" fill="white"/>
<path d="M55.3883 3.94722V5.33922C55.495 4.90189 55.7137 4.54989 56.0443 4.28322C56.3857 4.01655 56.8977 3.88322 57.5803 3.88322H57.8203V5.41922H57.1003C56.4283 5.41922 55.975 5.59522 55.7403 5.94722C55.5057 6.29922 55.3883 6.85922 55.3883 7.62722V11.4992H53.8203V3.94722H55.3883Z" fill="white"/>
<path d="M61.7421 10.2992C62.4141 10.2992 62.9528 10.0752 63.3581 9.62722C63.7634 9.16855 63.9661 8.55522 63.9661 7.78722V7.72322C63.9661 6.93389 63.7688 6.30989 63.3741 5.85122C62.9794 5.38188 62.4461 5.14722 61.7741 5.14722C61.1021 5.14722 60.5634 5.38188 60.1581 5.85122C59.7634 6.30989 59.5661 6.93389 59.5661 7.72322V7.78722C59.5661 8.55522 59.7581 9.16855 60.1421 9.62722C60.5368 10.0752 61.0701 10.2992 61.7421 10.2992ZM61.7421 11.6272C60.6328 11.6272 59.7261 11.2646 59.0221 10.5392C58.3288 9.81389 57.9821 8.88055 57.9821 7.73922C57.9821 7.16322 58.0728 6.63522 58.2541 6.15522C58.4461 5.67522 58.7074 5.26455 59.0381 4.92322C59.3794 4.57122 59.7794 4.29922 60.2381 4.10722C60.7074 3.91522 61.2194 3.81922 61.7741 3.81922C62.3288 3.81922 62.8354 3.91522 63.2941 4.10722C63.7634 4.29922 64.1634 4.57122 64.4941 4.92322C64.8248 5.26455 65.0808 5.67522 65.2621 6.15522C65.4541 6.63522 65.5501 7.16322 65.5501 7.73922C65.5501 8.30455 65.4541 8.82722 65.2621 9.30722C65.0808 9.78722 64.8194 10.1979 64.4781 10.5392C64.1474 10.8806 63.7474 11.1472 63.2781 11.3392C62.8088 11.5312 62.2968 11.6272 61.7421 11.6272Z" fill="white"/>
<path d="M68.3571 3.94722V5.27522C68.5491 4.80588 68.8264 4.44322 69.1891 4.18722C69.5624 3.92055 70.0211 3.78722 70.5651 3.78722C71.0024 3.78722 71.4131 3.91522 71.7971 4.17122C72.1918 4.41655 72.4744 4.83789 72.6451 5.43522C72.8264 4.94455 73.1198 4.54989 73.5251 4.25122C73.9304 3.94189 74.4531 3.78722 75.0931 3.78722C75.8078 3.78722 76.3784 4.05388 76.8051 4.58722C77.2318 5.10988 77.4451 5.83522 77.4451 6.76322V11.4992H75.8611V6.84322C75.8611 6.28855 75.7438 5.87255 75.5091 5.59522C75.2744 5.31789 74.9331 5.17922 74.4851 5.17922C73.9838 5.17922 73.5944 5.36589 73.3171 5.73922C73.0398 6.11255 72.9011 6.62455 72.9011 7.27522V11.4992H71.3171V6.84322C71.3171 6.28855 71.1998 5.87255 70.9651 5.59522C70.7304 5.31789 70.3891 5.17922 69.9411 5.17922C69.4824 5.17922 69.1038 5.36055 68.8051 5.72322C68.5064 6.08588 68.3571 6.60322 68.3571 7.27522V11.4992H66.7891V3.94722H68.3571Z" fill="white"/>
<path d="M80.5606 3.94722V11.4992H78.9766V3.94722H80.5606ZM80.6246 1.06722V2.73122H78.9286V1.06722H80.6246Z" fill="white"/>
<path d="M84.9965 11.7072C84.2711 11.7072 83.6151 11.5632 83.0285 11.2752C82.4525 10.9872 81.9938 10.6032 81.6525 10.1232L83.0125 9.40322C83.2471 9.73389 83.5458 9.98455 83.9085 10.1552C84.2818 10.3259 84.6658 10.4112 85.0605 10.4112C85.4871 10.4112 85.8178 10.3206 86.0525 10.1392C86.2978 9.95788 86.4205 9.71255 86.4205 9.40322C86.4205 9.07255 86.2231 8.84855 85.8285 8.73122C85.4338 8.60322 84.9431 8.47522 84.3565 8.34722C84.0151 8.27255 83.6845 8.18722 83.3645 8.09122C83.0551 7.98455 82.7778 7.84589 82.5325 7.67522C82.2978 7.50455 82.1058 7.29655 81.9565 7.05122C81.8178 6.79522 81.7485 6.48589 81.7485 6.12322C81.7485 5.46189 82.0205 4.90722 82.5645 4.45922C83.1191 4.01122 83.7965 3.78722 84.5965 3.78722C85.3005 3.78722 85.9298 3.93655 86.4845 4.23522C87.0391 4.52322 87.4978 4.91255 87.8605 5.40322L86.5005 6.07522C86.2871 5.74455 86.0151 5.49389 85.6845 5.32322C85.3538 5.15255 84.9911 5.06722 84.5965 5.06722C84.1911 5.06722 83.8658 5.15789 83.6205 5.33922C83.3751 5.50989 83.2525 5.73922 83.2525 6.02722C83.2525 6.33655 83.3965 6.54988 83.6845 6.66722C83.9725 6.77388 84.4578 6.89655 85.1405 7.03522C85.4818 7.09922 85.8178 7.18455 86.1485 7.29122C86.4898 7.39789 86.7885 7.53655 87.0445 7.70722C87.3111 7.87789 87.5245 8.09122 87.6845 8.34722C87.8551 8.60322 87.9405 8.91789 87.9405 9.29122C87.9405 9.98455 87.6631 10.5606 87.1085 11.0192C86.5538 11.4779 85.8498 11.7072 84.9965 11.7072Z" fill="white"/>
<path d="M92.414 11.6272C91.262 11.6272 90.3446 11.2752 89.662 10.5712C88.99 9.85655 88.654 8.92322 88.654 7.77122C88.654 7.19522 88.7446 6.66189 88.926 6.17122C89.118 5.68055 89.374 5.26455 89.694 4.92322C90.0246 4.57122 90.414 4.29922 90.862 4.10722C91.3206 3.91522 91.8166 3.81922 92.35 3.81922C93.4593 3.81922 94.3286 4.17122 94.958 4.87522C95.5873 5.56855 95.902 6.50722 95.902 7.69122V8.26722H90.222C90.2646 8.90722 90.478 9.41389 90.862 9.78722C91.2566 10.1606 91.774 10.3472 92.414 10.3472C93.054 10.3472 93.534 10.2139 93.854 9.94722C94.174 9.66989 94.4033 9.34988 94.542 8.98722L95.934 9.53122C95.678 10.1072 95.2673 10.6032 94.702 11.0192C94.1366 11.4246 93.374 11.6272 92.414 11.6272ZM92.318 5.09922C91.7526 5.09922 91.2726 5.28055 90.878 5.64322C90.494 5.99522 90.2646 6.47522 90.19 7.08322H94.286C94.254 6.44322 94.062 5.95255 93.71 5.61122C93.3686 5.26989 92.9046 5.09922 92.318 5.09922Z" fill="white"/>
<path d="M101.985 0.875218V11.4992H100.385V0.875218H101.985Z" fill="white"/>
<path d="M105.341 3.94722V5.37122C105.544 4.86989 105.837 4.48055 106.221 4.20322C106.605 3.92589 107.085 3.78722 107.661 3.78722C108.472 3.78722 109.112 4.05922 109.581 4.60322C110.051 5.13655 110.285 5.90455 110.285 6.90722V11.4992H108.701V6.98722C108.701 6.40055 108.573 5.95255 108.317 5.64322C108.072 5.33388 107.693 5.17922 107.181 5.17922C106.605 5.17922 106.152 5.41389 105.821 5.88322C105.501 6.35255 105.341 7.01922 105.341 7.88322V11.4992H103.773V3.94722H105.341Z" fill="white"/>
<path d="M114.653 11.7072C113.927 11.7072 113.271 11.5632 112.685 11.2752C112.109 10.9872 111.65 10.6032 111.309 10.1232L112.669 9.40322C112.903 9.73389 113.202 9.98455 113.565 10.1552C113.938 10.3259 114.322 10.4112 114.717 10.4112C115.143 10.4112 115.474 10.3206 115.709 10.1392C115.954 9.95788 116.077 9.71255 116.077 9.40322C116.077 9.07255 115.879 8.84855 115.485 8.73122C115.09 8.60322 114.599 8.47522 114.013 8.34722C113.671 8.27255 113.341 8.18722 113.021 8.09122C112.711 7.98455 112.434 7.84589 112.189 7.67522C111.954 7.50455 111.762 7.29655 111.613 7.05122C111.474 6.79522 111.405 6.48589 111.405 6.12322C111.405 5.46189 111.677 4.90722 112.221 4.45922C112.775 4.01122 113.453 3.78722 114.253 3.78722C114.957 3.78722 115.586 3.93655 116.141 4.23522C116.695 4.52322 117.154 4.91255 117.517 5.40322L116.157 6.07522C115.943 5.74455 115.671 5.49389 115.341 5.32322C115.01 5.15255 114.647 5.06722 114.253 5.06722C113.847 5.06722 113.522 5.15789 113.277 5.33922C113.031 5.50989 112.909 5.73922 112.909 6.02722C112.909 6.33655 113.053 6.54988 113.341 6.66722C113.629 6.77388 114.114 6.89655 114.797 7.03522C115.138 7.09922 115.474 7.18455 115.805 7.29122C116.146 7.39789 116.445 7.53655 116.701 7.70722C116.967 7.87789 117.181 8.09122 117.341 8.34722C117.511 8.60322 117.597 8.91789 117.597 9.29122C117.597 9.98455 117.319 10.5606 116.765 11.0192C116.21 11.4779 115.506 11.7072 114.653 11.7072Z" fill="white"/>
<path d="M122.36 11.4992H121.016C120.333 11.4672 119.874 11.2966 119.64 10.9872C119.405 10.6672 119.282 10.2086 119.272 9.61122V5.29122H118.072V3.94722H119.272V2.47522L120.792 1.53122V3.94722H122.424V5.29122H120.792V9.41922C120.792 9.65389 120.845 9.82989 120.952 9.94722C121.058 10.0646 121.229 10.1232 121.464 10.1232H122.36V11.4992Z" fill="white"/>
<path d="M125.248 3.94722V11.4992H123.664V3.94722H125.248ZM125.312 1.06722V2.73122H123.616V1.06722H125.312Z" fill="white"/>
<path d="M130.61 11.4992H129.266C128.583 11.4672 128.124 11.2966 127.89 10.9872C127.655 10.6672 127.532 10.2086 127.522 9.61122V5.29122H126.322V3.94722H127.522V2.47522L129.042 1.53122V3.94722H130.674V5.29122H129.042V9.41922C129.042 9.65389 129.095 9.82989 129.202 9.94722C129.308 10.0646 129.479 10.1232 129.714 10.1232H130.61V11.4992Z" fill="white"/>
<path d="M134.381 11.6272C133.538 11.6272 132.877 11.3552 132.397 10.8112C131.917 10.2566 131.677 9.49922 131.677 8.53922V3.94722H133.261V8.45922C133.261 9.03522 133.389 9.48322 133.645 9.80322C133.901 10.1126 134.285 10.2672 134.797 10.2672C135.415 10.2672 135.874 10.0219 136.173 9.53122C136.471 9.02989 136.621 8.37389 136.621 7.56322V3.94722H138.189V11.4992H136.621V10.2032C136.418 10.6619 136.13 11.0139 135.757 11.2592C135.383 11.5046 134.925 11.6272 134.381 11.6272Z" fill="white"/>
<path d="M143.516 11.4992H142.172C141.489 11.4672 141.031 11.2966 140.796 10.9872C140.561 10.6672 140.439 10.2086 140.428 9.61122V5.29122H139.228V3.94722H140.428V2.47522L141.948 1.53122V3.94722H143.58V5.29122H141.948V9.41922C141.948 9.65389 142.001 9.82989 142.108 9.94722C142.215 10.0646 142.385 10.1232 142.62 10.1232H143.516V11.4992Z" fill="white"/>
<path d="M147.805 11.6272C146.653 11.6272 145.735 11.2752 145.053 10.5712C144.381 9.85655 144.045 8.92322 144.045 7.77122C144.045 7.19522 144.135 6.66189 144.317 6.17122C144.509 5.68055 144.765 5.26455 145.085 4.92322C145.415 4.57122 145.805 4.29922 146.253 4.10722C146.711 3.91522 147.207 3.81922 147.741 3.81922C148.85 3.81922 149.719 4.17122 150.349 4.87522C150.978 5.56855 151.293 6.50722 151.293 7.69122V8.26722H145.613C145.655 8.90722 145.869 9.41389 146.253 9.78722C146.647 10.1606 147.165 10.3472 147.805 10.3472C148.445 10.3472 148.925 10.2139 149.245 9.94722C149.565 9.66989 149.794 9.34988 149.933 8.98722L151.325 9.53122C151.069 10.1072 150.658 10.6032 150.093 11.0192C149.527 11.4246 148.765 11.6272 147.805 11.6272ZM147.709 5.09922C147.143 5.09922 146.663 5.28055 146.269 5.64322C145.885 5.99522 145.655 6.47522 145.581 7.08322H149.677C149.645 6.44322 149.453 5.95255 149.101 5.61122C148.759 5.26989 148.295 5.09922 147.709 5.09922Z" fill="white"/>
<path d="M156.274 11.4992V5.29122H155.01V3.94722H156.274V3.17922C156.274 2.31522 156.423 1.69655 156.722 1.32322C157.021 0.949885 157.554 0.741886 158.322 0.699219H159.538V2.13922H158.962C158.461 2.13922 158.146 2.19789 158.018 2.31522C157.89 2.43255 157.826 2.75789 157.826 3.29122V3.94722H159.362V5.29122H157.826V11.4992H156.274Z" fill="white"/>
<path d="M163.383 10.2992C164.055 10.2992 164.593 10.0752 164.999 9.62722C165.404 9.16855 165.607 8.55522 165.607 7.78722V7.72322C165.607 6.93389 165.409 6.30989 165.015 5.85122C164.62 5.38188 164.087 5.14722 163.415 5.14722C162.743 5.14722 162.204 5.38188 161.799 5.85122C161.404 6.30989 161.207 6.93389 161.207 7.72322V7.78722C161.207 8.55522 161.399 9.16855 161.783 9.62722C162.177 10.0752 162.711 10.2992 163.383 10.2992ZM163.383 11.6272C162.273 11.6272 161.367 11.2646 160.663 10.5392C159.969 9.81389 159.623 8.88055 159.623 7.73922C159.623 7.16322 159.713 6.63522 159.895 6.15522C160.087 5.67522 160.348 5.26455 160.679 4.92322C161.02 4.57122 161.42 4.29922 161.879 4.10722C162.348 3.91522 162.86 3.81922 163.415 3.81922C163.969 3.81922 164.476 3.91522 164.935 4.10722C165.404 4.29922 165.804 4.57122 166.135 4.92322C166.465 5.26455 166.721 5.67522 166.903 6.15522C167.095 6.63522 167.191 7.16322 167.191 7.73922C167.191 8.30455 167.095 8.82722 166.903 9.30722C166.721 9.78722 166.46 10.1979 166.119 10.5392C165.788 10.8806 165.388 11.1472 164.919 11.3392C164.449 11.5312 163.937 11.6272 163.383 11.6272Z" fill="white"/>
<path d="M169.998 3.94722V5.33922C170.104 4.90189 170.323 4.54989 170.654 4.28322C170.995 4.01655 171.507 3.88322 172.19 3.88322H172.43V5.41922H171.71C171.038 5.41922 170.584 5.59522 170.35 5.94722C170.115 6.29922 169.998 6.85922 169.998 7.62722V11.4992H168.43V3.94722H169.998Z" fill="white"/>
<path d="M185.132 0.875218V11.4992H183.532V6.81122H178.156V11.4992H176.556V0.875218H178.156V5.38722H183.532V0.875218H185.132Z" fill="white"/>
<path d="M189.428 11.6272C188.585 11.6272 187.924 11.3552 187.444 10.8112C186.964 10.2566 186.724 9.49922 186.724 8.53922V3.94722H188.308V8.45922C188.308 9.03522 188.436 9.48322 188.692 9.80322C188.948 10.1126 189.332 10.2672 189.844 10.2672C190.462 10.2672 190.921 10.0219 191.22 9.53122C191.518 9.02989 191.668 8.37389 191.668 7.56322V3.94722H193.236V11.4992H191.668V10.2032C191.465 10.6619 191.177 11.0139 190.804 11.2592C190.43 11.5046 189.972 11.6272 189.428 11.6272Z" fill="white"/>
<path d="M196.466 3.94722V5.27522C196.658 4.80588 196.936 4.44322 197.298 4.18722C197.672 3.92055 198.13 3.78722 198.674 3.78722C199.112 3.78722 199.522 3.91522 199.906 4.17122C200.301 4.41655 200.584 4.83789 200.754 5.43522C200.936 4.94455 201.229 4.54989 201.634 4.25122C202.04 3.94189 202.562 3.78722 203.202 3.78722C203.917 3.78722 204.488 4.05388 204.914 4.58722C205.341 5.10988 205.554 5.83522 205.554 6.76322V11.4992H203.97V6.84322C203.97 6.28855 203.853 5.87255 203.618 5.59522C203.384 5.31789 203.042 5.17922 202.594 5.17922C202.093 5.17922 201.704 5.36589 201.426 5.73922C201.149 6.11255 201.01 6.62455 201.01 7.27522V11.4992H199.426V6.84322C199.426 6.28855 199.309 5.87255 199.074 5.59522C198.84 5.31789 198.498 5.17922 198.05 5.17922C197.592 5.17922 197.213 5.36055 196.914 5.72322C196.616 6.08588 196.466 6.60322 196.466 7.27522V11.4992H194.898V3.94722H196.466Z" fill="white"/>
<path d="M209.294 11.6912C208.494 11.6912 207.859 11.4886 207.39 11.0832C206.921 10.6779 206.686 10.1552 206.686 9.51522C206.686 9.08855 206.761 8.74189 206.91 8.47522C207.059 8.19789 207.262 7.97389 207.518 7.80322C207.785 7.62189 208.099 7.47789 208.462 7.37122C208.825 7.26455 209.214 7.16322 209.63 7.06722C210.27 6.92855 210.782 6.81655 211.166 6.73122C211.55 6.64589 211.779 6.50188 211.854 6.29922V6.18722C211.854 5.87789 211.726 5.61655 211.47 5.40322C211.225 5.18988 210.814 5.08322 210.238 5.08322C209.683 5.08322 209.251 5.20589 208.942 5.45122C208.643 5.68589 208.478 6.01655 208.446 6.44322V6.53922H206.862C206.883 5.69655 207.203 5.03522 207.822 4.55522C208.451 4.06455 209.262 3.81922 210.254 3.81922C211.214 3.81922 211.966 4.04322 212.51 4.49122C213.065 4.93922 213.342 5.64322 213.342 6.60322V10.3312L213.358 11.4992H211.838V10.3632C211.582 10.8112 211.23 11.1472 210.782 11.3712C210.334 11.5846 209.838 11.6912 209.294 11.6912ZM209.582 10.4912C210.126 10.4912 210.622 10.3366 211.07 10.0272C211.529 9.71789 211.79 9.19522 211.854 8.45922V7.53122C211.619 7.69122 211.315 7.81389 210.942 7.89922C210.579 7.98455 210.217 8.06989 209.854 8.15522C209.427 8.26189 209.059 8.40588 208.75 8.58722C208.441 8.76855 208.286 9.05655 208.286 9.45122C208.286 9.76055 208.398 10.0112 208.622 10.2032C208.846 10.3952 209.166 10.4912 209.582 10.4912Z" fill="white"/>
<path d="M216.482 3.94722V5.37122C216.685 4.86989 216.978 4.48055 217.362 4.20322C217.746 3.92589 218.226 3.78722 218.802 3.78722C219.613 3.78722 220.253 4.05922 220.722 4.60322C221.191 5.13655 221.426 5.90455 221.426 6.90722V11.4992H219.842V6.98722C219.842 6.40055 219.714 5.95255 219.458 5.64322C219.213 5.33388 218.834 5.17922 218.322 5.17922C217.746 5.17922 217.293 5.41389 216.962 5.88322C216.642 6.35255 216.482 7.01922 216.482 7.88322V11.4992H214.914V3.94722H216.482Z" fill="white"/>
<path d="M226.118 0.875218H229.958C231.356 0.875218 232.38 1.13655 233.03 1.65922C233.692 2.18189 234.022 2.88588 234.022 3.77122C234.022 4.50722 233.804 5.14722 233.366 5.69122C232.929 6.23522 232.284 6.57655 231.43 6.71522C232.284 6.96055 232.924 7.44055 233.35 8.15522C233.777 8.86989 234.065 9.85122 234.214 11.0992L234.262 11.4992H232.566L232.55 11.1632C232.412 10.0219 232.092 9.10989 231.59 8.42722C231.089 7.74455 230.268 7.40322 229.126 7.40322H227.702V11.4992H226.118V0.875218ZM227.702 2.23522V6.07522H229.718C230.209 6.07522 230.625 6.01122 230.966 5.88322C231.318 5.75522 231.596 5.58989 231.798 5.38722C232.012 5.18455 232.166 4.95522 232.262 4.69922C232.358 4.44322 232.406 4.18722 232.406 3.93122C232.406 3.35522 232.209 2.92855 231.814 2.65122C231.42 2.37388 230.79 2.23522 229.926 2.23522H227.702Z" fill="white"/>
<path d="M237.201 3.94722V11.4992H235.617V3.94722H237.201ZM237.265 1.06722V2.73122H235.569V1.06722H237.265Z" fill="white"/>
<path d="M241.779 9.43522C241.608 9.43522 241.438 9.42455 241.267 9.40322C241.096 9.37122 240.931 9.33389 240.771 9.29122H240.659C240.371 9.28055 240.147 9.32855 239.987 9.43522C239.838 9.54189 239.763 9.67522 239.763 9.83522C239.763 10.0166 239.87 10.1659 240.083 10.2832C240.296 10.3899 240.579 10.4432 240.931 10.4432H242.499C243.694 10.4432 244.595 10.6406 245.203 11.0352C245.811 11.4192 246.115 11.9952 246.115 12.7632C246.115 13.5419 245.752 14.1552 245.027 14.6032C244.312 15.0512 243.326 15.2752 242.067 15.2752C240.83 15.2752 239.88 15.0886 239.219 14.7152C238.568 14.3419 238.243 13.8032 238.243 13.0992C238.243 12.7259 238.366 12.3952 238.611 12.1072C238.867 11.8192 239.208 11.5952 239.635 11.4352C239.251 11.3392 238.947 11.1739 238.723 10.9392C238.499 10.7046 238.387 10.4326 238.387 10.1232C238.387 9.79255 238.504 9.50988 238.739 9.27522C238.984 9.04055 239.32 8.87522 239.747 8.77922C239.416 8.52322 239.155 8.21388 238.963 7.85122C238.771 7.47788 238.675 7.07255 238.675 6.63522C238.675 5.82455 238.979 5.14722 239.587 4.60322C240.195 4.05922 240.952 3.78722 241.859 3.78722C242.435 3.78722 242.947 3.90455 243.395 4.13922C243.854 4.36322 244.216 4.67255 244.483 5.06722C244.622 4.73655 244.819 4.46989 245.075 4.26722C245.342 4.05389 245.672 3.94722 246.067 3.94722V5.57922C245.864 5.50455 245.651 5.48322 245.427 5.51522C245.214 5.54722 245.022 5.65389 244.851 5.83522C244.883 5.96322 244.91 6.09122 244.931 6.21922C244.952 6.34722 244.963 6.48055 244.963 6.61922C244.963 7.47255 244.67 8.15522 244.083 8.66722C243.507 9.17922 242.739 9.43522 241.779 9.43522ZM242.451 11.7872H241.507C240.995 11.7872 240.552 11.8886 240.179 12.0912C239.806 12.3046 239.619 12.5979 239.619 12.9712C239.619 13.3232 239.832 13.5952 240.259 13.7872C240.696 13.9899 241.315 14.0912 242.115 14.0912C242.915 14.0912 243.544 13.9792 244.003 13.7552C244.472 13.5419 244.707 13.2486 244.707 12.8752C244.707 12.5019 244.526 12.2246 244.163 12.0432C243.811 11.8726 243.24 11.7872 242.451 11.7872ZM241.827 8.21922C242.35 8.21922 242.766 8.07522 243.075 7.78722C243.395 7.49922 243.555 7.12055 243.555 6.65122V6.58722C243.555 6.12855 243.39 5.74989 243.059 5.45122C242.739 5.14189 242.328 4.98722 241.827 4.98722C241.336 4.98722 240.931 5.14189 240.611 5.45122C240.291 5.74989 240.131 6.12855 240.131 6.58722V6.65122C240.131 7.10989 240.286 7.48855 240.595 7.78722C240.904 8.07522 241.315 8.21922 241.827 8.21922Z" fill="white"/>
<path d="M248.559 0.715219V5.43522C248.751 4.91255 249.039 4.51255 249.423 4.23522C249.807 3.95789 250.287 3.81922 250.863 3.81922C251.674 3.81922 252.314 4.08589 252.783 4.61922C253.253 5.14189 253.487 5.90455 253.487 6.90722V11.4992H251.903V6.98722C251.903 6.40055 251.775 5.95255 251.519 5.64322C251.274 5.33388 250.895 5.17922 250.383 5.17922C249.807 5.17922 249.359 5.41389 249.039 5.88322C248.719 6.35255 248.559 7.01922 248.559 7.88322V11.4992H247.023V0.715219H248.559Z" fill="white"/>
<path d="M258.469 11.4992H257.125C256.442 11.4672 255.984 11.2966 255.749 10.9872C255.514 10.6672 255.392 10.2086 255.381 9.61122V5.29122H254.181V3.94722H255.381V2.47522L256.901 1.53122V3.94722H258.533V5.29122H256.901V9.41922C256.901 9.65389 256.954 9.82989 257.061 9.94722C257.168 10.0646 257.338 10.1232 257.573 10.1232H258.469V11.4992Z" fill="white"/>
<path d="M262.465 11.7072C261.74 11.7072 261.084 11.5632 260.497 11.2752C259.921 10.9872 259.463 10.6032 259.121 10.1232L260.481 9.40322C260.716 9.73389 261.015 9.98455 261.377 10.1552C261.751 10.3259 262.135 10.4112 262.529 10.4112C262.956 10.4112 263.287 10.3206 263.521 10.1392C263.767 9.95788 263.889 9.71255 263.889 9.40322C263.889 9.07255 263.692 8.84855 263.297 8.73122C262.903 8.60322 262.412 8.47522 261.825 8.34722C261.484 8.27255 261.153 8.18722 260.833 8.09122C260.524 7.98455 260.247 7.84589 260.001 7.67522C259.767 7.50455 259.575 7.29655 259.425 7.05122C259.287 6.79522 259.217 6.48589 259.217 6.12322C259.217 5.46189 259.489 4.90722 260.033 4.45922C260.588 4.01122 261.265 3.78722 262.065 3.78722C262.769 3.78722 263.399 3.93655 263.953 4.23522C264.508 4.52322 264.967 4.91255 265.329 5.40322L263.969 6.07522C263.756 5.74455 263.484 5.49389 263.153 5.32322C262.823 5.15255 262.46 5.06722 262.065 5.06722C261.66 5.06722 261.335 5.15789 261.089 5.33922C260.844 5.50989 260.721 5.73922 260.721 6.02722C260.721 6.33655 260.865 6.54988 261.153 6.66722C261.441 6.77388 261.927 6.89655 262.609 7.03522C262.951 7.09922 263.287 7.18455 263.617 7.29122C263.959 7.39789 264.257 7.53655 264.513 7.70722C264.78 7.87789 264.993 8.09122 265.153 8.34722C265.324 8.60322 265.409 8.91789 265.409 9.29122C265.409 9.98455 265.132 10.5606 264.577 11.0192C264.023 11.4779 263.319 11.7072 262.465 11.7072Z" fill="white"/>
</g>
<defs>
<clipPath id="clip0_196_123">
<rect width="266" height="16" fill="white"/>
</clipPath>
</defs>
</svg>
