<svg width="80" height="25" viewBox="0 0 80 25" fill="none" xmlns="http://www.w3.org/2000/svg">
<rect y="0.683594" width="50.4792" height="23.77" fill="#2674AC"/>
<path d="M7.8229 14.8238C7.77879 14.4488 7.80003 13.9023 7.80003 13.6283L8.37348 7.17813H10.4811L9.90755 13.6854C9.78502 15.0978 10.3372 16.0975 11.7488 16.0975C13.1816 16.0975 13.9429 15.0864 14.0638 13.8339L14.6716 7.17798L16.789 7.17798L16.2041 13.7441C15.9624 16.2802 14.2861 18.1688 11.5724 18.1688C9.45499 18.1688 8.08745 16.8053 7.82298 14.8238H7.8229ZM17.6483 12.64C17.9244 9.54607 20.0206 6.97417 23.626 6.97417C24.5851 6.97417 25.5 7.19109 26.4067 7.7831L26.1632 10.342C25.3366 9.23791 24.3432 9.06828 23.4283 9.06828C21.1786 9.06828 19.9435 10.6275 19.7671 12.596C19.6004 14.5287 20.5937 16.0877 22.7782 16.0877C23.7274 16.0877 24.7305 15.8137 25.7893 14.7569L25.5573 17.3842C24.5313 17.942 23.5722 18.1915 22.6131 18.1915C19.027 18.1915 17.3852 15.5397 17.6479 12.6398L17.6483 12.64ZM28.1043 7.17785H30.2102L29.4374 15.9377H32.4599C32.6805 15.9377 33.3977 15.9279 33.5954 15.9279C33.5856 16.0306 33.3977 17.9405 33.3977 17.9405H27.1436L28.1043 7.17786L28.1043 7.17785ZM39.6404 6.69023H39.4868L33.7082 17.942L35.9579 17.942L36.7617 16.2345H40.8428L41.3509 17.942H43.5777L39.644 6.68994L39.6404 6.69023ZM39.1049 11.1947C39.1718 11.0462 39.2258 10.8538 39.2584 10.751H39.2927C39.3025 10.888 39.3254 11.0479 39.3695 11.2061C39.479 11.6954 40.3073 14.4156 40.3073 14.4156L37.6361 14.4156C37.6361 14.4156 39.0706 11.2744 39.1048 11.1944L39.1049 11.1947Z" fill="white"/>
<path d="M55.9734 7.80222L57.8954 7.80222V15.3464L62.4506 15.3464V17H55.9734V7.80222ZM63.8983 10.9347C64.3683 10.3357 65.1754 10.0361 66.3194 10.0361C67.064 10.0361 67.7255 10.1838 68.3037 10.4792C68.882 10.7745 69.1711 11.332 69.1711 12.1515V15.2715C69.1711 15.4878 69.1752 15.7499 69.1836 16.0578C69.196 16.2907 69.2314 16.4488 69.2896 16.532C69.3479 16.6152 69.4352 16.6838 69.5517 16.7379V17H67.6173C67.5632 16.8627 67.5258 16.7338 67.505 16.6131C67.4842 16.4925 67.4676 16.3552 67.4551 16.2013C67.2096 16.4675 66.9268 16.6942 66.6064 16.8814C66.2237 17.1019 65.7911 17.2122 65.3085 17.2122C64.6928 17.2122 64.1832 17.0374 63.7797 16.688C63.3803 16.3344 63.1807 15.8352 63.1807 15.1904C63.1807 14.3542 63.5031 13.749 64.1479 13.3746C64.5015 13.1707 65.0215 13.0251 65.7079 12.9377L66.3131 12.8629C66.6418 12.8213 66.8768 12.7693 67.0183 12.7069C67.272 12.5987 67.3989 12.4302 67.3989 12.2014C67.3989 11.9227 67.3012 11.7313 67.1056 11.6273C66.9143 11.5192 66.6314 11.4651 66.257 11.4651C65.8368 11.4651 65.5394 11.5691 65.3647 11.7771C65.2399 11.931 65.1567 12.139 65.1151 12.4011H63.3991C63.4365 11.8062 63.6029 11.3174 63.8983 10.9347ZM65.2211 15.7146C65.3875 15.8518 65.5914 15.9205 65.8327 15.9205C66.2154 15.9205 66.5669 15.8082 66.8872 15.5835C67.2117 15.3589 67.3802 14.9491 67.3927 14.3542V13.6928C67.2804 13.7635 67.166 13.8218 67.0495 13.8675C66.9372 13.9091 66.7812 13.9486 66.5815 13.9861L66.1821 14.061C65.8077 14.1275 65.5394 14.2086 65.3771 14.3043C65.1026 14.4666 64.9653 14.7182 64.9653 15.0594C64.9653 15.363 65.0506 15.5814 65.2211 15.7146ZM75.9165 17L74.8495 12.0454L73.77 17H71.9229L70.0135 10.1984H71.9229L72.9837 15.0781L73.9634 10.1984H75.7668L76.8026 15.0968L77.8634 10.1984H79.7167L77.7449 17H75.9165Z" fill="white"/>
</svg>
