<svg width="21" height="14" viewBox="0 0 21 14" fill="none" xmlns="http://www.w3.org/2000/svg">
<path d="M20.5503 2.1966C20.4315 1.77269 20.2 1.3889 19.8805 1.08604C19.5519 0.773862 19.1492 0.550554 18.7104 0.437193C17.0682 0.00433624 10.4888 0.00433634 10.4888 0.00433634C7.7459 -0.0268707 5.00369 0.110386 2.27763 0.415331C1.83882 0.537067 1.43689 0.765365 1.1076 1.07992C0.784053 1.39123 0.549699 1.77511 0.427275 2.19573C0.133189 3.78002 -0.00969843 5.38867 0.0005397 6.99999C-0.00995379 8.60987 0.132583 10.218 0.427275 11.8043C0.547076 12.2231 0.780556 12.6053 1.10498 12.914C1.4294 13.2226 1.8334 13.4456 2.27763 13.5637C3.94172 13.9957 10.4888 13.9957 10.4888 13.9957C13.2352 14.0269 15.9809 13.8896 18.7104 13.5847C19.1492 13.4713 19.5519 13.248 19.8805 12.9358C20.204 12.6271 20.434 12.2432 20.5494 11.8252C20.8512 10.2416 20.9979 8.63225 20.9875 7.02011C21.0102 5.40114 20.8637 3.78423 20.5503 2.19573V2.1966ZM8.39708 9.99414V4.00673L13.8712 7.00087L8.39708 9.99414Z" fill="white"/>
</svg>
